<?xml version="1.0" encoding="UTF-8" standalone="no"?>
<!-- Created with Inkscape (http://www.inkscape.org/) -->

<svg
   version="1.1"
   id="svg2"
   width="1920"
   height="1080"
   viewBox="0 0 1920 1080"
   sodipodi:docname="slide-1.svg"
   inkscape:version="1.2.2 (b0a8486541, 2022-12-01)"
   xmlns:inkscape="http://www.inkscape.org/namespaces/inkscape"
   xmlns:sodipodi="http://sodipodi.sourceforge.net/DTD/sodipodi-0.dtd"
   xmlns="http://www.w3.org/2000/svg"
   xmlns:svg="http://www.w3.org/2000/svg">
  <defs
     id="defs6" />
  <sodipodi:namedview
     id="namedview4"
     pagecolor="#ffffff"
     bordercolor="#666666"
     borderopacity="1.0"
     inkscape:pageshadow="2"
     inkscape:pageopacity="0.0"
     inkscape:pagecheckerboard="0"
     showgrid="false"
     inkscape:zoom="0.30740741"
     inkscape:cx="824.63855"
     inkscape:cy="658.73493"
     inkscape:window-width="1864"
     inkscape:window-height="1011"
     inkscape:window-x="56"
     inkscape:window-y="32"
     inkscape:window-maximized="1"
     inkscape:current-layer="g8"
     inkscape:showpageshadow="2"
     inkscape:deskcolor="#d1d1d1" />
  <g
     inkscape:groupmode="layer"
     inkscape:label="Image"
     id="g8">
    <rect
       style="fill:#ffffff;fill-opacity:1;stroke-width:3.12945"
       id="rect881"
       width="1920"
       height="1080"
       x="0"
       y="0" />
    <text
       xml:space="preserve"
       style="font-style:normal;font-weight:normal;font-size:157.379px;line-height:1.25;font-family:sans-serif;fill:#000000;fill-opacity:1;stroke:none;stroke-width:8.90295"
       x="686.78912"
       y="530.66937"
       id="text90555"><tspan
         sodipodi:role="line"
         id="tspan90553"
         style="font-style:normal;font-variant:normal;font-weight:normal;font-stretch:normal;font-size:157.379px;font-family:'Ubuntu Condensed';-inkscape-font-specification:'Ubuntu Condensed, ';fill:#1bbd93;fill-opacity:1;stroke-width:8.90295"
         x="686.78912"
         y="530.66937"><tspan
   style="font-style:normal;font-variant:normal;font-weight:normal;font-stretch:normal;font-family:Ubuntu;-inkscape-font-specification:Ubuntu"
   id="tspan954">MetaSoil</tspan> </tspan></text>
    <path
       fill="#000000"
       opacity="1"
       stroke="none"
       d="m 589.83535,519.59519 c 4.73693,0.91226 8.88134,2.61298 13.00384,4.34529 7.60271,3.19457 15.52759,4.11985 23.71116,3.88267 5.29937,-0.15366 8.86562,-2.50194 11.31009,-7.10947 4.27121,-8.05069 6.11783,-16.76027 7.18233,-25.67462 0.78307,-6.55871 0.66866,-6.57765 -5.84305,-6.57757 -19.76966,2.7e-4 -39.53949,10e-4 -59.30944,-0.001 -1.458,-10e-4 -2.99892,0.32523 -4.68955,-0.9208 0.73775,-3.16822 1.55644,-6.49451 2.28007,-9.84151 1.45322,-6.72131 1.43158,-6.70291 8.60062,-6.69454 22.50506,0.003 45.01034,0.004 67.51541,0.0558 5.05151,0.001 5.07465,0.13967 5.33801,5.22752 1.50281,29.01648 -5.73897,55.51588 -23.51042,78.64236 -21.36794,27.80644 -49.79326,43.60519 -84.76405,46.12329 -43.82472,3.1549 -79.57444,-12.95687 -106.05168,-48.17234 -13.77085,-18.31549 -20.49163,-39.55959 -22.59098,-62.28938 -0.47917,-5.19398 -0.75952,-10.37201 -0.28129,-15.62255 0.28778,-3.15253 1.53951,-3.97873 4.40152,-3.96038 11.68712,0.0743 23.37524,0.003 35.06293,10e-4 16.91002,-0.003 33.81999,-0.0669 50.72993,-0.0669 1.4575,-3.3e-4 2.98303,-0.33868 4.3367,0.46547 0.67139,1.20096 -0.23784,1.89323 -0.7913,2.66195 -2.41996,3.36145 -4.44526,6.95951 -5.29402,11.01687 -0.58404,2.7911 -2.02943,3.45601 -4.67305,3.44435 -20.76411,-0.0917 -41.52889,-0.0609 -62.29331,-0.0743 -5.85386,-10e-4 -5.8886,-10e-4 -5.09563,5.57764 1.03313,7.26995 2.75798,14.37342 5.06899,21.35076 0.65738,1.98263 1.73219,3.21261 3.66738,3.80357 9.009,2.75157 16.4281,8.06363 23.34062,14.27976 4.81229,4.32739 10.11153,8.0601 15.49381,11.64398 10.10423,6.72818 20.86533,8.00535 32.34575,3.90186 10.53002,-3.76375 19.18683,-10.39194 27.47288,-17.58737 12.77521,-11.09381 27.41425,-15.07631 44.32503,-11.83199 m 21.51363,22.51708 c -5.63347,-1.13552 -10.88337,-3.38986 -16.2226,-5.42405 -14.55241,-5.54382 -28.17087,-4.60296 -40.42743,5.97107 -5.63979,4.86526 -11.437,9.5568 -17.79624,13.50051 -11.91454,7.3886 -24.61222,11.06278 -38.71499,8.47763 -11.96403,-2.19252 -21.98511,-8.21231 -31.33177,-15.64166 -3.90949,-3.10739 -7.83501,-6.21601 -12.6379,-8.92875 11.21129,27.47406 48.7054,38.38093 72.43526,29.13032 11.78745,-4.59514 21.6315,-12.16412 31.09697,-20.2228 11.02718,-9.38843 23.10925,-10.69011 36.19841,-5.59744 6.60585,2.57008 13.28554,4.85933 20.10023,6.79496 5.42143,1.53982 7.87108,-0.0669 8.84651,-6.09373 -3.63897,-0.62639 -7.28091,-1.25302 -11.54658,-1.9653 z"
       id="path2"
       style="fill:#235256;fill-opacity:1;stroke-width:0.746071" />
    <path
       fill="#000000"
       opacity="1"
       stroke="none"
       d="m 540.07187,427.0501 c -0.12778,7.69512 -0.30037,15.0171 -0.35511,22.33987 -0.002,2.43839 -0.4512,3.96313 -3.46243,3.98683 -3.17735,0.003 -3.67791,-1.56249 -3.66869,-4.18195 0.0743,-20.61798 0.002,-41.2367 0.15927,-61.85413 0.003,-3.81114 -0.37286,-6.81775 -4.10446,-9.10492 -3.38488,-2.07512 -4.91344,-5.85759 -5.44248,-9.81623 -1.20587,-9.02186 0.3634,-17.37749 6.74689,-24.22364 3.96203,-4.24976 7.73505,-4.2449 12.07144,-0.49982 8.88787,7.67599 11.84445,29.56287 -0.59444,36.39825 -2.041,1.12136 -1.91323,2.98672 -1.88877,4.86369 0.18179,13.90612 0.36002,27.81251 0.53929,42.09187 z"
       id="path8"
       style="fill:#1bbd93;fill-opacity:1;stroke-width:0.746071" />
    <path
       fill="#000000"
       opacity="1"
       stroke="none"
       d="m 484.91823,371.50664 c 0.93535,-2.00876 2.55944,-1.82061 3.99762,-1.79905 5.95692,0.0891 11.92686,0.0669 17.86517,0.46911 8.94003,0.61213 16.31355,7.40593 18.23792,17.05375 1.08695,5.44925 1.33317,11.06427 2.01994,16.59675 0.21551,1.72875 -0.34557,2.53527 -2.14798,2.61973 -7.21013,0.33834 -14.40631,0.51991 -21.34859,-1.94081 -11.64477,-4.12812 -18.70907,-14.01588 -18.8477,-26.34457 -0.003,-2.10856 0.0904,-4.21897 0.22402,-6.65474 z"
       id="path10"
       style="fill:#1bbd93;fill-opacity:1;stroke-width:0.746071" />
    <path
       fill="#000000"
       opacity="1"
       stroke="none"
       d="m 557.44164,374.69779 c 8.98385,-2.26997 17.83481,-1.17875 26.62632,-1.3098 1.9443,-0.004 2.47877,1.26072 2.45065,2.98838 -0.25317,15.47242 -13.10566,29.41857 -26.71611,29.32275 -3.60017,-0.003 -7.20115,-0.003 -10.80122,0.003 -1.95976,0.003 -3.00138,-0.74552 -3.05746,-2.81875 -0.148,-5.47503 -0.0559,-10.95305 0.97164,-16.33043 1.1032,-5.8181 4.61368,-9.78146 10.52618,-11.87764 z"
       id="path14"
       style="fill:#1bbd93;fill-opacity:1;stroke-width:0.746071" />
    <path
       fill="#000000"
       opacity="1"
       stroke="none"
       d="m 435.03169,443.78718 c 1.43642,-11.04857 6.31206,-19.55124 15.87145,-25.02483 3.42398,-1.96055 4.241,-1.44448 4.26644,2.60281 0.0382,7.06145 0.15573,14.0704 1.30617,21.11188 1.57061,9.61104 -3.73732,16.8418 -9.6739,23.59767 -1.28562,1.46297 -2.44323,0.62362 -3.45581,-0.44479 -5.71951,-6.03144 -8.87412,-13.0675 -8.31435,-21.84287 z"
       id="path24"
       style="fill:#1bbd93;fill-opacity:1;stroke-width:0.746071" />
    <path
       fill="#000000"
       opacity="1"
       stroke="none"
       d="m 629.93082,464.00776 c -7.13882,-8.19427 -8.10703,-17.25395 -4.91799,-27.03565 1.1226,-3.44329 2.85466,-6.59758 4.73482,-9.67725 2.94128,-4.81788 3.59986,-4.95526 7.36867,-0.55781 8.25091,9.62702 13.1053,25.17683 1.15966,37.71178 -3.95223,4.14721 -4.43729,4.28257 -8.34516,-0.44114 z"
       id="path26"
       style="fill:#1bbd93;fill-opacity:1;stroke-width:0.746071" />
    <path
       fill="#000000"
       opacity="1"
       stroke="none"
       d="m 516.8944,494.23439 c -0.18649,2.93547 -0.79443,5.61203 -0.56753,8.33866 0.15316,1.839 -0.68227,2.50824 -2.47082,2.43772 -4.40212,-0.17289 -8.71046,0.48984 -12.97842,1.55291 -6.89946,1.71843 -12.75903,5.23712 -17.82614,10.14536 -2.21504,2.14562 -2.45196,3.90997 -0.88489,5.71483 1.52682,1.7583 3.27093,1.70124 5.75015,-0.16829 0.47866,-0.3604 0.99694,-0.66798 1.74395,-1.16438 3.6613,3.68786 7.28611,7.34677 10.92033,10.99608 1.73125,1.73826 3.42802,3.51601 5.23953,5.16758 1.38575,1.26317 1.44947,2.23802 0.14801,3.70638 -1.92987,2.17749 -1.40321,4.71661 0.93239,5.92198 1.80594,0.93213 3.20523,0.19656 4.47323,-1.06556 6.56007,-6.52913 10.40069,-14.39506 11.63188,-23.56436 0.32691,-2.43487 0.66337,-4.86945 0.48881,-7.32231 -0.14597,-2.04058 0.62425,-2.8613 2.70536,-2.7655 4.04716,0.18669 8.03991,-0.39262 11.9555,-1.36872 17.70852,-4.41108 30.56302,-19.92722 31.65181,-38.13635 0.40436,-6.75732 0.40436,-6.75732 7.11552,-7.24495 20.96882,-1.52354 36.65064,-16.5298 39.25166,-37.47603 0.2613,-2.09613 0.50239,-4.18285 0.39972,-6.27995 -0.096,-1.96944 0.73783,-2.60577 2.63843,-2.57382 6.64648,0.11229 13.06897,-1.0636 19.15934,-3.78178 4.36553,-1.94832 8.20749,-4.69427 11.58007,-8.06969 2.10383,-2.10566 2.26105,-4.09163 0.61218,-5.7437 -1.57673,-1.57955 -3.39885,-1.44911 -5.5593,0.39853 -2.75835,2.35826 -2.74597,2.3461 -5.35181,-0.27221 -4.573,-4.59584 -9.1135,-9.22609 -13.7768,-13.72911 -1.33603,-1.29006 -1.41032,-2.24427 -0.0838,-3.42379 0.12898,-0.11507 0.22565,-0.26706 0.33864,-0.40103 2.36167,-2.79762 2.58223,-4.76577 0.71337,-6.36707 -1.82818,-1.56637 -3.81784,-1.07268 -6.32318,1.58257 -7.38609,7.8279 -10.79478,17.25038 -11.09523,27.88734 -0.14817,5.27631 0.62488,4.6515 -4.84461,4.76318 -19.66542,0.40103 -36.19873,13.85692 -40.65993,33.03003 -0.85921,3.69224 -0.76921,7.47551 -1.18493,11.2094 -0.17289,1.55749 -0.74074,2.05691 -2.25767,2.16321 -4.35794,0.30601 -8.78022,0.34975 -12.98919,1.66387 -16.23293,5.0672 -26.49633,15.73624 -30.19906,32.48001 -0.11325,0.5121 -0.25106,1.01868 -0.39603,1.75951 m 70.62828,-51.40775 c -3.30985,-3.2011 -6.61966,-6.40223 -10.01843,-9.68947 1.21577,-1.43177 2.08187,-2.40279 2.89296,-3.41776 1.48332,-1.85549 2.72736,-1.79965 4.41762,-0.002 4.20731,4.43703 8.60305,8.69616 12.94664,13.00265 3.39084,3.36196 3.40037,3.50021 -0.27418,6.53306 -0.13426,0.11095 -0.29282,0.20194 -0.40432,0.33278 -1.07968,1.25364 -1.9795,0.94005 -3.01522,-0.15783 -2.03612,-2.16179 -4.17782,-4.22404 -6.54447,-6.58471 m -45.00592,48.16162 c -2.60053,-2.59623 -5.208,-5.18593 -7.80013,-7.79062 -3.99515,-4.01424 -3.93236,-4.71658 0.71864,-8.25466 0.19506,-0.14801 0.47303,-0.18787 0.32483,-0.1323 6.08666,6.0152 12.02535,11.88397 18.00774,17.79609 -0.66001,1.26918 -1.87109,2.14814 -2.89477,3.21146 -1.35077,1.40329 -2.38897,1.36267 -3.6658,-0.0882 -1.38406,-1.57385 -2.94448,-2.99236 -4.69104,-4.74134 m -32.37547,42.24342 c -5.22313,-5.20667 -10.44627,-10.41327 -15.71435,-15.66459 1.75513,-1.66268 3.54357,-2.16694 5.18461,-2.94828 1.13444,-0.53988 1.99715,-0.21598 2.82084,0.61489 3.63429,3.66051 7.28101,7.30864 10.92968,10.95462 0.75454,0.7546 1.0515,1.57646 0.56572,2.60114 -0.63577,1.34176 -1.22045,2.70783 -1.87684,4.03894 -0.33003,0.66798 -0.79776,1.2049 -1.91006,0.40439 m 87.01496,-99.49786 c -2.98058,-3.25646 -6.41015,-6.09837 -9.21832,-9.62534 1.61733,-1.21605 3.22096,-1.87567 4.84916,-2.52186 1.29379,-0.51315 2.29178,-0.38763 3.30473,0.64652 3.36703,3.43957 6.79478,6.81976 10.2111,10.21089 0.72589,0.72082 1.26579,1.50964 0.89436,2.55973 -0.68752,1.94301 -1.33078,3.92177 -3.33345,6.18337 -2.26464,-2.52675 -4.35803,-4.86226 -6.70758,-7.45411 m -38.719,52.82313 c -1.07959,1.4195 -1.66674,0.067 -2.2262,-0.48979 -4.4807,-4.41409 -8.91837,-8.8724 -13.35688,-13.32921 -0.5427,-0.54492 -1.21805,-1.0269 -1.27175,-2.12118 0.68005,-0.77397 1.77015,-1.12622 2.71886,-1.71085 2.37697,-1.46448 4.20997,-1.20229 6.08049,1.03166 2.01137,2.40221 4.39649,4.49238 6.6276,6.70947 4.2725,4.24529 4.27517,4.24255 1.42788,9.91057 m 20.2774,-33.86146 c -1.54657,-1.54203 -3.09752,-3.07959 -4.63876,-4.62687 -3.03917,-3.05134 -2.86865,-6.38904 0.77666,-9.66546 5.06748,5.14837 10.4269,10.03527 15.23117,15.52439 -4.53251,3.65358 -6.62122,3.57952 -10.15953,-0.0669 -0.30378,-0.31321 -0.62427,-0.61037 -1.20954,-1.16326 m 44.58232,-48.79873 c -1.36257,-1.36173 -2.72876,-2.71994 -4.08615,-4.08673 -0.63168,-0.63644 -1.2205,-1.32699 -0.90983,-2.30932 0.64923,-2.05203 1.16423,-4.17451 2.38293,-5.58823 5.39504,5.30966 10.71155,10.54204 16.0172,15.76367 -4.73758,3.36237 -6.38691,3.25283 -10.35211,-0.73269 -0.92624,-0.93103 -1.85899,-1.85596 -3.05204,-3.04633 m -97.38133,84.66013 c 0.47311,-1.19885 0.80909,-2.47317 1.69595,-3.314 5.17271,5.29855 10.29743,10.54772 15.53698,15.9148 -0.71332,0.32831 -1.75129,0.73488 -2.71981,1.26945 -2.62374,1.44711 -4.67397,0.93758 -6.63936,-1.36247 -2.09244,-2.44876 -4.38913,-4.75533 -6.81182,-6.87858 -1.80076,-1.57821 -2.30111,-3.1609 -1.06189,-5.6292 m -14.05931,23.72781 c 4.94404,-0.24329 5.64293,1.17351 3.72042,7.0182 -2.1506,-2.06256 -4.40741,-4.22695 -6.76662,-6.48963 0.93766,-0.16122 1.78254,-0.30444 3.04606,-0.52821 m 46.14211,-46.38854 c 1.04157,-10e-4 2.08337,-0.004 3.12472,-0.002 0.91777,10e-4 1.49915,0.461 1.51321,1.41252 0.003,1.86961 10e-4,3.73992 10e-4,5.8291 -2.44326,-1.38797 -5.87428,-4.8077 -7.13373,-7.00621 0.73193,-0.0737 1.39305,-0.14188 2.48765,-0.21597 m 45.37284,-44.58234 c -0.29998,-0.48579 -1.00833,-0.72825 -0.8771,-1.61248 2.16407,-0.19369 4.80241,-1.651 6.38183,0.003 1.50987,1.6031 0.27903,4.20977 -0.86017,6.88595 -1.46475,-1.68504 -2.92964,-3.37013 -4.64456,-5.29939 m 16.16112,-9.41195 c -3.21132,-0.12459 -3.84365,-1.63083 -2.35632,-5.09276 1.62974,1.45042 3.33656,2.96925 5.06619,4.50832 -0.75868,0.71187 -1.58434,0.46909 -2.70987,0.58464 m -95.91307,92.16042 c -0.0961,-1.35574 -0.3676,-2.74095 0.68588,-4.0614 1.62503,1.24285 2.9605,2.65217 4.31504,4.34619 -1.75734,0.74398 -3.27202,1.04601 -5.00143,-0.285 m 50.05547,-45.79586 c -3.69526,-0.0558 -4.06998,-0.65798 -2.78133,-5.83263 1.41532,1.70575 2.5146,3.03065 3.6141,4.35546 0.59685,0.71864 0.59444,1.2473 -0.83277,1.47717 z"
       id="path2-3"
       style="fill:#235256;fill-opacity:1;stroke-width:0.525955" />
  </g>
</svg>
