<?xml version="1.0" encoding="UTF-8" standalone="no"?>
<!-- Created with Inkscape (http://www.inkscape.org/) -->

<svg
   width="98"
   height="32"
   viewBox="0 0 25.929166 8.4666669"
   version="1.1"
   id="svg1242"
   inkscape:version="1.1.2 (0a00cf5339, 2022-02-04)"
   sodipodi:docname="logo-colorful.svg"
   xmlns:inkscape="http://www.inkscape.org/namespaces/inkscape"
   xmlns:sodipodi="http://sodipodi.sourceforge.net/DTD/sodipodi-0.dtd"
   xmlns="http://www.w3.org/2000/svg"
   xmlns:svg="http://www.w3.org/2000/svg">
  <sodipodi:namedview
     id="namedview1244"
     pagecolor="#ffffff"
     bordercolor="#666666"
     borderopacity="1.0"
     inkscape:pageshadow="2"
     inkscape:pageopacity="0.0"
     inkscape:pagecheckerboard="0"
     inkscape:document-units="px"
     showgrid="false"
     units="px"
     inkscape:zoom="7.9999996"
     inkscape:cx="97.187505"
     inkscape:cy="22.125001"
     inkscape:window-width="1854"
     inkscape:window-height="1043"
     inkscape:window-x="66"
     inkscape:window-y="0"
     inkscape:window-maximized="1"
     inkscape:current-layer="layer1"
     width="150px" />
  <defs
     id="defs1239" />
  <g
     inkscape:label="Layer 1"
     inkscape:groupmode="layer"
     id="layer1">
    <text
       xml:space="preserve"
       style="font-style:normal;font-weight:normal;font-size:5.11528px;line-height:1.25;font-family:sans-serif;fill:#000000;fill-opacity:1;stroke:none;stroke-width:0.289373"
       x="8.2914429"
       y="5.7371202"
       id="text90555"><tspan
         sodipodi:role="line"
         id="tspan90553"
         style="font-style:normal;font-variant:normal;font-weight:normal;font-stretch:normal;font-size:5.11528px;font-family:'Ubuntu Condensed';-inkscape-font-specification:'Ubuntu Condensed, ';fill:#1bbd93;fill-opacity:1;stroke-width:0.289373"
         x="8.2914429"
         y="5.7371202">MetaSoil</tspan></text>
    <path
       fill="#000000"
       opacity="1"
       stroke="none"
       d="M 5.4717684,5.806664 C 5.6257329,5.836314 5.7604346,5.891591 5.8944295,5.947897 6.1415398,6.0517354 6.3991246,6.0818015 6.6651133,6.0740968 6.8373604,6.0691082 6.9532728,5.9927779 7.0327255,5.8430189 7.1715512,5.581347 7.2315739,5.2982613 7.2661733,5.0085138 7.2916298,4.7953368 7.287926,4.7947232 7.0762585,4.7947264 6.4336814,4.794735 5.7911036,4.7951027 5.1485254,4.7945291 5.101131,4.7944808 5.0510469,4.8051219 4.9960949,4.7645977 5.0200543,4.6616221 5.0466865,4.5535086 5.0702061,4.4447211 5.1174381,4.2262559 5.1167336,4.2268566 5.3497522,4.2271292 c 0.7314841,8.063e-4 1.4629693,0.00113 2.1944531,0.00156 0.1641911,7.26e-5 0.1649397,0.00454 0.1735018,0.1699092 0.048845,0.9431252 -0.1865324,1.80443 -0.7641618,2.5561108 C 6.2590262,7.8585032 5.3351172,8.3720121 4.1984631,8.4538613 2.7740269,8.5563967 1.6120537,8.0327211 0.75146109,6.8881113 0.30387082,6.2928035 0.08542578,5.6023027 0.01718939,4.8635208 0.00159617,4.694701 -0.00749114,4.5263999 0.00807117,4.3557376 0.01741598,4.2532727 0.0581144,4.2264236 0.15113447,4.2270149 c 0.37986936,0.00242 0.75976447,8.064e-4 1.13965033,2.957e-4 0.549626,-6.989e-4 1.099251,-0.00212 1.6488769,-0.00223 0.047374,-1.13e-5 0.096955,-0.011012 0.1409539,0.015141 0.021839,0.039034 -0.00773,0.061536 -0.025714,0.08652 C 2.9762436,4.436 2.9104147,4.5529437 2.8828292,4.6848268 c -0.018976,0.090717 -0.065965,0.112325 -0.15189,0.1119438 -0.6748969,-0.003 -1.3498107,-0.00196 -2.02472001,-0.00226 C 0.51595449,4.7944093 0.51482,4.7943674 0.54060055,4.9758009 c 0.0335799,0.2362988 0.0896394,0.4671797 0.16475493,0.6939703 0.0213409,0.064438 0.0562997,0.1044157 0.11920119,0.123626 0.29281883,0.089432 0.53396303,0.2620896 0.75864143,0.4641346 0.1564102,0.140654 0.3286521,0.261976 0.503591,0.3784636 0.3284191,0.218684 0.6781881,0.260198 1.051333,0.1268216 C 3.480383,6.6404835 3.7617522,6.4250475 4.0310762,6.1911723 4.4463086,5.8305914 4.92212,5.7011514 5.4717719,5.8065966 M 6.1710273,6.5384707 C 5.9879267,6.5015659 5.8172875,6.428289 5.6437454,6.362176 5.1707487,6.1819842 4.7281073,6.212568 4.3297331,6.5562467 4.146421,6.7143886 3.9579966,6.8668768 3.7513019,6.9950565 3.3640413,7.2352102 2.9513322,7.354637 2.4929504,7.270609 2.1040792,7.1993472 1.7783667,7.003681 1.4745729,6.7622068 1.3475022,6.6612046 1.2199098,6.5601688 1.0638014,6.4719946 1.4282046,7.3649873 2.6468748,7.7194913 3.4181692,7.4188161 3.8012927,7.2694608 4.1212529,7.0234476 4.4289094,6.761516 4.7873295,6.4563635 5.1800322,6.4140539 5.6054682,6.579582 5.8201753,6.6631181 6.0372894,6.7375284 6.2587851,6.8004407 6.434996,6.8504885 6.5146191,6.7982367 6.5463203,6.6023781 6.4280428,6.5820231 6.3096705,6.5616493 6.1710265,6.5384965 Z"
       id="path2"
       style="fill:#235256;fill-opacity:1;stroke-width:0.0242493" />
    <path
       fill="#000000"
       opacity="1"
       stroke="none"
       d="M 3.8543014,2.7986693 C 3.8501837,3.048787 3.8445446,3.2867705 3.8427733,3.5247817 3.842182,3.6040364 3.8280762,3.6536006 3.7302373,3.6543685 3.6269602,3.655148 3.6106923,3.6035792 3.6109914,3.5184433 3.6133567,2.8482943 3.6116096,2.178126 3.616144,1.507996 3.6169504,1.3841221 3.6039977,1.2863998 3.482737,1.2120601 3.3727211,1.1446142 3.3230365,1.021669 3.30584,0.89300367 3.2666483,0.59976698 3.3176718,0.32818246 3.5251336,0.10566055 3.6539122,-0.03246691 3.7765461,-0.03231139 3.9174949,0.08942144 4.2063788,0.33891459 4.3024746,1.0503082 3.8981532,1.2724732 c -0.066339,0.036453 -0.062188,0.097081 -0.061392,0.158085 0.00589,0.4519952 0.011697,0.9039923 0.017543,1.3681132 z"
       id="path8"
       style="fill:#1bbd93;fill-opacity:1;stroke-width:0.0242493" />
    <path
       fill="#000000"
       opacity="1"
       stroke="none"
       d="m 2.0616452,0.99334458 c 0.0304,-0.0652928 0.083188,-0.0591787 0.1299331,-0.058478 0.1936183,0.002903 0.3876587,0.002011 0.5806728,0.0152379 0.2905748,0.0199088 0.5302387,0.24071902 0.5927863,0.55430062 0.03533,0.1771204 0.043333,0.3596204 0.065656,0.5394471 0.00698,0.056191 -0.011246,0.082402 -0.069818,0.085146 C 3.1265225,2.1399762 2.8926275,2.1459112 2.6669841,2.0659206 2.2884931,1.9317439 2.0588846,1.6103607 2.0543756,1.2096444 c -7.552e-4,-0.06854 0.00294,-0.1371281 0.00727,-0.21629982 z"
       id="path10"
       style="fill:#1bbd93;fill-opacity:1;stroke-width:0.0242493" />
    <path
       fill="#000000"
       opacity="1"
       stroke="none"
       d="m 4.4188728,1.0970665 c 0.2920017,-0.073784 0.579685,-0.038312 0.8654354,-0.042576 0.063196,-9.461e-4 0.08057,0.040975 0.079651,0.097135 C 5.3557187,1.6545236 4.9379922,2.107814 4.4956078,2.1047021 4.378591,2.1038635 4.2615472,2.1040355 4.1445395,2.1055407 4.0808359,2.1063793 4.0469825,2.0812937 4.0451621,2.0139219 4.0403455,1.8359647 4.0435494,1.6579175 4.0767388,1.4831346 4.112598,1.2940255 4.2266975,1.1652061 4.4188728,1.0970738 Z"
       id="path14"
       style="fill:#1bbd93;fill-opacity:1;stroke-width:0.0242493" />
    <path
       fill="#000000"
       opacity="1"
       stroke="none"
       d="m 0.44018332,3.3426775 c 0.0466879,-0.3591103 0.2051586,-0.635477 0.51587026,-0.8133872 0.11128662,-0.06372 0.13784242,-0.046943 0.13866952,0.084605 0.00145,0.2295143 0.00506,0.4573292 0.042456,0.6861998 C 1.1882262,3.6124837 1.0157066,3.8474985 0.82274758,4.0670867 0.780963,4.1146383 0.74333842,4.0873557 0.71042193,4.0526423 0.5245241,3.8566014 0.42198873,3.6279105 0.44018332,3.3426775 Z"
       id="path24"
       style="fill:#1bbd93;fill-opacity:1;stroke-width:0.0242493" />
    <path
       fill="#000000"
       opacity="1"
       stroke="none"
       d="M 6.7749899,3.9999083 C 6.5429589,3.7335657 6.5114824,3.4391007 6.6151389,3.1211624 6.6516241,3.00925 6.7079225,2.9067251 6.7690345,2.8066236 6.8646341,2.650033 6.8860454,2.6455661 7.0085412,2.7884942 7.2767177,3.1014049 7.4344997,3.6068204 7.04623,4.0142404 6.9177708,4.1490362 6.9020061,4.1534373 6.7749899,3.9999061 Z"
       id="path26"
       style="fill:#1bbd93;fill-opacity:1;stroke-width:0.0242493" />
    <path
       fill="#000000"
       opacity="1"
       stroke="none"
       d="m 3.1009685,4.9823629 c -0.00605,0.09541 -0.025814,0.1824073 -0.018445,0.2710289 0.00498,0.059774 -0.022173,0.081526 -0.080309,0.079236 C 2.8591236,5.3269878 2.7190929,5.3485468 2.5803759,5.3831008 2.3561225,5.4389588 2.1656668,5.5533228 2.00097,5.712854 1.928974,5.782594 1.921272,5.8399404 1.97221,5.8986048 c 0.049627,0.057146 0.1063144,0.055293 0.186897,-0.00546 0.015549,-0.011725 0.032404,-0.021723 0.056681,-0.037847 0.1190051,0.1198672 0.2368189,0.2387931 0.354947,0.357404 0.056271,0.056499 0.1114242,0.1142832 0.1703002,0.1679575 0.04504,0.041061 0.047113,0.072748 0.00481,0.1204764 -0.062726,0.070771 -0.04561,0.153303 0.030303,0.1924815 0.058699,0.030295 0.1041795,0.00638 0.1453944,-0.034636 0.2132285,-0.2122161 0.3380551,-0.4678815 0.3780696,-0.7659093 0.010627,-0.079145 0.021563,-0.1582735 0.015866,-0.237997 -0.00475,-0.066326 0.020299,-0.093005 0.087934,-0.089888 0.1315427,0.00606 0.2613218,-0.012787 0.3885869,-0.044489 C 4.3675829,5.3773256 4.7853906,4.8730061 4.8207801,4.2811527 4.8339135,4.0615212 4.8339135,4.0615212 5.0520557,4.0456709 5.7336056,3.9961484 6.243309,3.5084035 6.3278524,2.82759 c 0.00846,-0.068133 0.016327,-0.1359601 0.01302,-0.2041219 -0.0031,-0.064013 0.023963,-0.084695 0.085757,-0.083655 0.2160303,0.00364 0.4247809,-0.034572 0.6227355,-0.1229194 C 7.1912561,2.3535667 7.3161339,2.2643171 7.4257535,2.1546029 7.4941345,2.0861629 7.4992415,2.0216118 7.4456405,1.967916 7.3943905,1.916575 7.3351663,1.920817 7.2649425,1.98086 7.1752885,2.057516 7.1756875,2.057119 7.0909919,1.972 6.9423532,1.8226232 6.7947742,1.6721242 6.6432052,1.5257662 c -0.043427,-0.041933 -0.045841,-0.072951 -0.00274,-0.1112877 0.00421,-0.00374 0.00733,-0.00869 0.011016,-0.013041 0.076763,-0.090928 0.083928,-0.1548996 0.02317,-0.2069471 C 6.6152272,1.1435824 6.5505602,1.1596254 6.4691274,1.2459314 6.2290619,1.5003583 6.1182637,1.8066164 6.1085,2.1523522 6.10366,2.3238469 6.128821,2.303538 5.9510333,2.3071684 5.3118521,2.3202214 4.7744679,2.7575605 4.6294658,3.3807414 c -0.027924,0.1200124 -0.025017,0.2429769 -0.038515,0.364341 -0.00562,0.050625 -0.024074,0.066854 -0.073381,0.070312 -0.1416456,0.00994 -0.2853847,0.011376 -0.4221865,0.054079 -0.5276211,0.1646983 -0.8612081,0.5114732 -0.9815629,1.0556972 -0.00368,0.016643 -0.00815,0.03311 -0.012858,0.057191 M 5.3965934,3.3114587 C 5.2890138,3.2074098 5.1814353,3.1033608 5.070967,2.9965173 5.11048,2.9499833 5.138631,2.9184203 5.164998,2.8854332 c 0.04821,-0.060312 0.088646,-0.058495 0.1435821,-5.64e-4 0.1367525,0.1442127 0.2796228,0.2826484 0.4208061,0.4226273 0.1102107,0.1092707 0.1105177,0.1137592 -0.00893,0.2123403 -0.00438,0.00361 -0.00949,0.00658 -0.013136,0.010814 -0.035091,0.040749 -0.064341,0.030553 -0.098004,-0.00517 C 5.5431364,3.4552156 5.4735245,3.3881859 5.3966023,3.3114545 M 3.933776,4.8768549 C 3.8492488,4.7924659 3.7645023,4.7082949 3.6802461,4.6236366 3.5503904,4.4931627 3.552437,4.4703325 3.7036135,4.3553355 c 0.00635,-0.00482 0.0154,-0.00612 0.010564,-0.00429 0.1978379,0.1955124 0.390861,0.3862661 0.5853069,0.5784265 -0.021444,0.041251 -0.060816,0.069816 -0.094087,0.1043825 -0.0439,0.04561 -0.07765,0.04429 -0.1191453,-0.00289 -0.044987,-0.051156 -0.095706,-0.09726 -0.1524758,-0.154111 M 2.8814754,6.2498938 C 2.7117087,6.0806631 2.5419405,5.9114319 2.3707146,5.7407474 c 0.057045,-0.054042 0.1151716,-0.070432 0.1685145,-0.095828 0.03687,-0.017554 0.064911,-0.007 0.091684,0.019971 0.1181259,0.1189743 0.2366545,0.2375499 0.3552477,0.3560589 0.024535,0.024515 0.034178,0.051238 0.018399,0.084544 -0.020659,0.043608 -0.039669,0.088012 -0.061005,0.1312775 -0.010717,0.021728 -0.025933,0.039165 -0.06208,0.013125 m 2.8282461,-3.23398 C 5.6128456,2.9100731 5.5013696,2.8177006 5.4100982,2.7030617 c 0.052565,-0.039524 0.1046924,-0.060963 0.1576116,-0.081964 0.042052,-0.016688 0.074489,-0.012596 0.1074131,0.021037 0.1094411,0.1117929 0.2208525,0.2216617 0.331889,0.331885 0.023591,0.023417 0.04115,0.049065 0.029074,0.0832 C 6.0137421,3.1203684 5.9928315,3.1846869 5.9277374,3.2581939 5.8541282,3.1760701 5.7860858,3.1001576 5.7097215,3.0159146 M 4.4512359,4.7328232 c -0.035088,0.04614 -0.05417,0.00199 -0.072356,-0.015937 C 4.2332398,4.5734123 4.0890075,4.4285067 3.9447411,4.2836446 c -0.017623,-0.017694 -0.039589,-0.033378 -0.041334,-0.068941 0.0221,-0.025167 0.057532,-0.036607 0.088369,-0.055608 0.07726,-0.047599 0.1368355,-0.039078 0.1976338,0.03353 0.065379,0.078078 0.1428974,0.1460183 0.2154191,0.2180797 0.1388661,0.1379847 0.1389543,0.137896 0.046408,0.3221184 M 5.1103119,3.6322292 C 5.0600458,3.5821101 5.0096361,3.5321333 4.959543,3.4818418 4.8607574,3.3826652 4.8663004,3.2741763 4.9847851,3.1676826 5.1494929,3.3350214 5.3236906,3.4938609 5.4798427,3.6722716 5.3325202,3.7910266 5.2646331,3.7886179 5.1496266,3.6700343 5.1397471,3.6598477 5.1293282,3.650184 5.1103104,3.63223 M 6.5593753,2.046123 C 6.5150873,2.0018625 6.4706787,1.9577219 6.4265627,1.9132911 6.4060312,1.8926122 6.3868928,1.8701605 6.3969902,1.8382349 6.4180858,1.7715374 6.4348314,1.7025454 6.4744377,1.6566018 6.6497953,1.8291807 6.8226007,1.999248 6.9950501,2.1689649 6.8410651,2.2782539 6.7874538,2.2746953 6.6585737,2.1451419 6.6284659,2.1148772 6.5981534,2.084816 6.5593751,2.0461228 M 3.3941894,4.7978337 c 0.015386,-0.038969 0.026302,-0.080387 0.055122,-0.107715 0.1681297,0.1722174 0.3346963,0.3428329 0.5050015,0.5172787 -0.023167,0.010693 -0.056929,0.023903 -0.088403,0.041262 -0.085282,0.047034 -0.1519157,0.030472 -0.2158016,-0.04429 C 3.5820984,5.1247811 3.5074471,5.049811 3.4287061,4.9808002 3.3701742,4.9295011 3.3539116,4.8780618 3.3941902,4.7978333 M 2.9372179,5.5690562 c 0.1606967,-0.00792 0.1834148,0.038145 0.1209276,0.2281153 -0.069902,-0.067041 -0.1432516,-0.1373898 -0.219934,-0.2109341 0.030475,-0.00523 0.057936,-0.00993 0.099006,-0.017181 M 4.4369704,4.0612871 c 0.033856,-2.565e-4 0.067717,-0.00102 0.1015657,-6.435e-4 0.029828,3.264e-4 0.048725,0.014963 0.049186,0.045911 9.09e-4,0.060768 2.669e-4,0.1215582 2.669e-4,0.1894626 C 4.508574,4.2509012 4.3970545,4.1397519 4.3561209,4.0682976 c 0.023778,-0.00242 0.045275,-0.00463 0.080851,-0.00701 M 5.9117287,2.6122268 c -0.00974,-0.015806 -0.032777,-0.023671 -0.028507,-0.052409 0.070339,-0.00629 0.1560901,-0.053663 0.2074291,8.343e-4 0.049071,0.052102 0.00906,0.1368299 -0.027962,0.2238137 -0.047609,-0.05477 -0.09522,-0.1095402 -0.1509605,-0.1722444 M 6.4370125,2.3063019 c -0.1043808,-0.00406 -0.1249303,-0.053006 -0.07659,-0.1655253 0.052975,0.047139 0.1084516,0.096505 0.1646689,0.1465292 -0.024669,0.023165 -0.051494,0.015232 -0.088078,0.018996 M 3.3195497,5.30179 c -0.00311,-0.044067 -0.011944,-0.089086 0.022315,-0.1320065 0.052816,0.040397 0.096227,0.086202 0.1402477,0.1412651 -0.057118,0.024184 -0.1063485,0.033995 -0.1625624,-0.00926 M 4.9465035,3.8132859 C 4.826398,3.8116359 4.814218,3.7918959 4.8561055,3.6237095 c 0.046,0.055438 0.08173,0.098504 0.1174662,0.1415649 0.019393,0.023367 0.01933,0.04054 -0.027068,0.048011 z"
       id="path2-3"
       style="fill:#235256;fill-opacity:1;stroke-width:0.017095" />
  </g>
</svg>
